<svg xmlns="http://www.w3.org/2000/svg" viewBox="0 0 1100 980" width="1100" height="980" font-family="'Inter', -apple-system, sans-serif">
  <defs>
    <linearGradient id="bgGrad" x1="0" y1="0" x2="0" y2="1">
      <stop offset="0%" stop-color="#0f1829"/>
      <stop offset="100%" stop-color="#0a1020"/>
    </linearGradient>
    <linearGradient id="titleGrad" x1="0" y1="0" x2="1" y2="0">
      <stop offset="0%" stop-color="#7c3aed"/>
      <stop offset="100%" stop-color="#0891b2"/>
    </linearGradient>

    <!-- Group background gradients -->
    <linearGradient id="hostGrad" x1="0" y1="0" x2="0" y2="1">
      <stop offset="0%" stop-color="#0c1a2e" stop-opacity="0.9"/>
      <stop offset="100%" stop-color="#091220" stop-opacity="0.5"/>
    </linearGradient>
    <linearGradient id="dataGrad" x1="0" y1="0" x2="0" y2="1">
      <stop offset="0%" stop-color="#0f1e10" stop-opacity="0.9"/>
      <stop offset="100%" stop-color="#081408" stop-opacity="0.5"/>
    </linearGradient>
    <linearGradient id="extGrad" x1="0" y1="0" x2="0" y2="1">
      <stop offset="0%" stop-color="#1e1040" stop-opacity="0.9"/>
      <stop offset="100%" stop-color="#0f0820" stop-opacity="0.5"/>
    </linearGradient>
    <linearGradient id="devGrad" x1="0" y1="0" x2="0" y2="1">
      <stop offset="0%" stop-color="#1a1028" stop-opacity="0.9"/>
      <stop offset="100%" stop-color="#0e0818" stop-opacity="0.5"/>
    </linearGradient>
    <linearGradient id="secGrad" x1="0" y1="0" x2="0" y2="1">
      <stop offset="0%" stop-color="#1a0818" stop-opacity="0.9"/>
      <stop offset="100%" stop-color="#100510" stop-opacity="0.5"/>
    </linearGradient>

    <filter id="glow">
      <feGaussianBlur stdDeviation="2" result="blur"/>
      <feMerge><feMergeNode in="blur"/><feMergeNode in="SourceGraphic"/></feMerge>
    </filter>
    <filter id="softGlow">
      <feGaussianBlur stdDeviation="1.5" result="blur"/>
      <feMerge><feMergeNode in="blur"/><feMergeNode in="SourceGraphic"/></feMerge>
    </filter>

    <!-- Arrow markers -->
    <marker id="arrowCyan" markerWidth="8" markerHeight="6" refX="8" refY="3" orient="auto">
      <path d="M0,0 L8,3 L0,6" fill="none" stroke="#22d3ee" stroke-width="1.5"/>
    </marker>
    <marker id="arrowViolet" markerWidth="8" markerHeight="6" refX="8" refY="3" orient="auto">
      <path d="M0,0 L8,3 L0,6" fill="none" stroke="#a78bfa" stroke-width="1.5"/>
    </marker>
    <marker id="arrowEmerald" markerWidth="8" markerHeight="6" refX="8" refY="3" orient="auto">
      <path d="M0,0 L8,3 L0,6" fill="none" stroke="#34d399" stroke-width="1.5"/>
    </marker>
    <marker id="arrowRose" markerWidth="8" markerHeight="6" refX="8" refY="3" orient="auto">
      <path d="M0,0 L8,3 L0,6" fill="none" stroke="#fb7185" stroke-width="1.5"/>
    </marker>
    <marker id="arrowSky" markerWidth="8" markerHeight="6" refX="8" refY="3" orient="auto">
      <path d="M0,0 L8,3 L0,6" fill="none" stroke="#38bdf8" stroke-width="1.5"/>
    </marker>
  </defs>

  <!-- Background -->
  <rect width="1100" height="980" fill="url(#bgGrad)" rx="12"/>

  <!-- Title -->
  <text x="550" y="36" text-anchor="middle" fill="url(#titleGrad)" font-size="18" font-weight="700" letter-spacing="0.5">System Architecture Map</text>
  <text x="550" y="54" text-anchor="middle" fill="#4a6080" font-size="11">Backend topology and service integrations  |  Smart Sumai</text>

  <!-- ================================================================== -->
  <!-- GROUP: Users (top-left) -->
  <!-- ================================================================== -->
  <rect x="20" y="72" width="200" height="130" rx="10" fill="url(#hostGrad)" stroke="#1e2d42" stroke-width="1"/>
  <text x="120" y="92" text-anchor="middle" fill="#6480a0" font-size="10" font-weight="600" letter-spacing="1">USERS</text>

  <!-- Browser -->
  <rect x="40" y="104" width="160" height="34" rx="6" fill="#0f1829" stroke="#22d3ee" stroke-width="1" stroke-opacity="0.5"/>
  <text x="120" y="125" text-anchor="middle" fill="#e0f2fe" font-size="11" font-weight="600">Browser / Web App</text>

  <!-- Mobile SMS -->
  <rect x="40" y="148" width="160" height="34" rx="6" fill="#0f1829" stroke="#a78bfa" stroke-width="1" stroke-opacity="0.5"/>
  <text x="120" y="169" text-anchor="middle" fill="#ede9fe" font-size="11" font-weight="600">Mobile SMS</text>

  <!-- ================================================================== -->
  <!-- GROUP: Hosting + Application (top-center) -->
  <!-- ================================================================== -->
  <rect x="250" y="72" width="340" height="205" rx="10" fill="url(#hostGrad)" stroke="#1e2d42" stroke-width="1"/>
  <text x="420" y="92" text-anchor="middle" fill="#6480a0" font-size="10" font-weight="600" letter-spacing="1">HOSTING + APPLICATION</text>

  <!-- Vercel Edge / CDN -->
  <rect x="270" y="104" width="300" height="34" rx="6" fill="#0f1829" stroke="#22d3ee" stroke-width="1" stroke-opacity="0.4"/>
  <text x="420" y="120" text-anchor="middle" fill="#22d3ee" font-size="10" font-weight="600">Vercel Edge Network + CDN</text>
  <text x="420" y="132" text-anchor="middle" fill="#4a6080" font-size="8">HTTPS / TLS / HSTS / Security Headers</text>

  <!-- Middleware -->
  <rect x="270" y="148" width="300" height="28" rx="6" fill="#0f1829" stroke="#38bdf8" stroke-width="1" stroke-opacity="0.4"/>
  <text x="420" y="166" text-anchor="middle" fill="#38bdf8" font-size="10" font-weight="600">Next.js Middleware (Auth Gate)</text>

  <!-- Next.js App Router -->
  <rect x="270" y="186" width="145" height="38" rx="6" fill="#0f1829" stroke="#94a3b8" stroke-width="1" stroke-opacity="0.4"/>
  <text x="342" y="203" text-anchor="middle" fill="#dce8f5" font-size="10" font-weight="600">Server Components</text>
  <text x="342" y="216" text-anchor="middle" fill="#4a6080" font-size="8">Pages + Server Actions</text>

  <!-- API Routes -->
  <rect x="425" y="186" width="145" height="38" rx="6" fill="#0f1829" stroke="#94a3b8" stroke-width="1" stroke-opacity="0.4"/>
  <text x="497" y="203" text-anchor="middle" fill="#dce8f5" font-size="10" font-weight="600">API Routes</text>
  <text x="497" y="216" text-anchor="middle" fill="#4a6080" font-size="8">Webhooks + REST</text>

  <!-- Rate Limiting -->
  <rect x="270" y="234" width="300" height="28" rx="6" fill="#0f1829" stroke="#fb7185" stroke-width="1" stroke-opacity="0.3"/>
  <text x="420" y="252" text-anchor="middle" fill="#fb7185" font-size="9" font-weight="500">Rate Limiting: 20 req/min (chat) | 20 errors/min (log)</text>

  <!-- Domain box -->
  <rect x="620" y="72" width="200" height="62" rx="10" fill="url(#hostGrad)" stroke="#1e2d42" stroke-width="1"/>
  <text x="720" y="92" text-anchor="middle" fill="#6480a0" font-size="10" font-weight="600" letter-spacing="1">DOMAINS</text>
  <text x="720" y="110" text-anchor="middle" fill="#22d3ee" font-size="10" font-weight="500">smartsumai.com</text>
  <text x="720" y="125" text-anchor="middle" fill="#4a6080" font-size="9">aw-property-management.vercel.app</text>

  <!-- ================================================================== -->
  <!-- GROUP: Data Layer (middle) -->
  <!-- ================================================================== -->
  <rect x="20" y="300" width="560" height="190" rx="10" fill="url(#dataGrad)" stroke="#1e2d42" stroke-width="1"/>
  <text x="300" y="320" text-anchor="middle" fill="#6480a0" font-size="10" font-weight="600" letter-spacing="1">DATA LAYER  (Supabase)</text>

  <!-- Supabase Auth -->
  <rect x="40" y="336" width="160" height="56" rx="6" fill="#0f1829" stroke="#34d399" stroke-width="1" stroke-opacity="0.5"/>
  <text x="120" y="358" text-anchor="middle" fill="#34d399" font-size="11" font-weight="600">Supabase Auth</text>
  <text x="120" y="373" text-anchor="middle" fill="#4a6080" font-size="8">Email/Password + Sessions</text>
  <text x="120" y="384" text-anchor="middle" fill="#4a6080" font-size="8">RLS + RBAC Functions</text>

  <!-- Supabase Postgres -->
  <rect x="220" y="336" width="170" height="56" rx="6" fill="#0f1829" stroke="#34d399" stroke-width="1" stroke-opacity="0.5"/>
  <text x="305" y="358" text-anchor="middle" fill="#34d399" font-size="11" font-weight="600">PostgreSQL</text>
  <text x="305" y="373" text-anchor="middle" fill="#4a6080" font-size="8">17 Tables | Row-Level Security</text>
  <text x="305" y="384" text-anchor="middle" fill="#4a6080" font-size="8">Idempotent Schema (deploy.sql)</text>

  <!-- Supabase Storage -->
  <rect x="410" y="336" width="150" height="56" rx="6" fill="#0f1829" stroke="#34d399" stroke-width="1" stroke-opacity="0.5"/>
  <text x="485" y="358" text-anchor="middle" fill="#34d399" font-size="11" font-weight="600">Storage</text>
  <text x="485" y="373" text-anchor="middle" fill="#4a6080" font-size="8">File Uploads (v2 Roadmap)</text>
  <text x="485" y="384" text-anchor="middle" fill="#4a6080" font-size="8">Encrypted at Rest</text>

  <!-- Key tables -->
  <rect x="40" y="402" width="520" height="28" rx="4" fill="#071408" stroke="#1e2d42" stroke-width="0.5"/>
  <text x="300" y="420" text-anchor="middle" fill="#4a6080" font-size="8">profiles | properties | stays | service_requests | conversations | ai_usage | audit_log | error_logs | organizations | subscriptions</text>

  <!-- Data Retention -->
  <rect x="40" y="440" width="520" height="22" rx="4" fill="#071408" stroke="#1e2d42" stroke-width="0.5"/>
  <text x="300" y="455" text-anchor="middle" fill="#6480a0" font-size="8">Data Retention: conversations 90d | error_logs (resolved) 30d | error_logs (unresolved) 90d  --  Cleanup cron daily 03:00 UTC</text>

  <!-- Supabase Management API -->
  <rect x="40" y="470" width="240" height="28" rx="6" fill="#0f1829" stroke="#34d399" stroke-width="1" stroke-opacity="0.3"/>
  <text x="160" y="488" text-anchor="middle" fill="#34d399" font-size="9" font-weight="500">Supabase Management API</text>

  <!-- ================================================================== -->
  <!-- GROUP: External Services (right) -->
  <!-- ================================================================== -->
  <rect x="610" y="145" width="470" height="210" rx="10" fill="url(#extGrad)" stroke="#1e2d42" stroke-width="1"/>
  <text x="845" y="165" text-anchor="middle" fill="#6480a0" font-size="10" font-weight="600" letter-spacing="1">EXTERNAL SERVICES</text>

  <!-- Anthropic Claude -->
  <rect x="630" y="180" width="200" height="56" rx="6" fill="#0f1829" stroke="#a78bfa" stroke-width="1" stroke-opacity="0.6" filter="url(#softGlow)"/>
  <text x="730" y="202" text-anchor="middle" fill="#a78bfa" font-size="11" font-weight="600">Anthropic Claude</text>
  <text x="730" y="217" text-anchor="middle" fill="#4a6080" font-size="8">Claude Haiku 4.5 | 600 max tokens</text>
  <text x="730" y="228" text-anchor="middle" fill="#4a6080" font-size="8">SMS + Web Chat AI Handler</text>

  <!-- Twilio -->
  <rect x="850" y="180" width="210" height="56" rx="6" fill="#0f1829" stroke="#fb7185" stroke-width="1" stroke-opacity="0.5"/>
  <text x="955" y="202" text-anchor="middle" fill="#fb7185" font-size="11" font-weight="600">Twilio</text>
  <text x="955" y="217" text-anchor="middle" fill="#4a6080" font-size="8">SMS Inbound/Outbound</text>
  <text x="955" y="228" text-anchor="middle" fill="#4a6080" font-size="8">HMAC Signature Validation</text>

  <!-- Stripe -->
  <rect x="630" y="248" width="200" height="56" rx="6" fill="#0f1829" stroke="#a78bfa" stroke-width="1" stroke-opacity="0.5"/>
  <text x="730" y="270" text-anchor="middle" fill="#a78bfa" font-size="11" font-weight="600">Stripe</text>
  <text x="730" y="285" text-anchor="middle" fill="#4a6080" font-size="8">Checkout Hosted Redirect (SAQ A)</text>
  <text x="730" y="296" text-anchor="middle" fill="#4a6080" font-size="8">Webhook Signature Verification</text>

  <!-- Resend -->
  <rect x="850" y="248" width="210" height="56" rx="6" fill="#0f1829" stroke="#38bdf8" stroke-width="1" stroke-opacity="0.5"/>
  <text x="955" y="270" text-anchor="middle" fill="#38bdf8" font-size="11" font-weight="600">Resend</text>
  <text x="955" y="285" text-anchor="middle" fill="#4a6080" font-size="8">Transactional Email</text>
  <text x="955" y="296" text-anchor="middle" fill="#4a6080" font-size="8">Work Orders | Stays | Guest Reports</text>

  <!-- Stripe env note -->
  <rect x="630" y="316" width="430" height="22" rx="4" fill="#0f0820" stroke="#1e2d42" stroke-width="0.5"/>
  <text x="845" y="331" text-anchor="middle" fill="#4a6080" font-size="8">Env Vars: ANTHROPIC_API_KEY | TWILIO_* | STRIPE_* | RESEND_API_KEY  (server-only, never in client bundle)</text>

  <!-- ================================================================== -->
  <!-- GROUP: DevOps + CI/CD (bottom-left) -->
  <!-- ================================================================== -->
  <rect x="20" y="520" width="560" height="230" rx="10" fill="url(#devGrad)" stroke="#1e2d42" stroke-width="1"/>
  <text x="300" y="540" text-anchor="middle" fill="#6480a0" font-size="10" font-weight="600" letter-spacing="1">DEVOPS + CI/CD</text>

  <!-- GitHub -->
  <rect x="40" y="556" width="160" height="48" rx="6" fill="#0f1829" stroke="#94a3b8" stroke-width="1" stroke-opacity="0.4"/>
  <text x="120" y="576" text-anchor="middle" fill="#dce8f5" font-size="11" font-weight="600">GitHub</text>
  <text x="120" y="590" text-anchor="middle" fill="#4a6080" font-size="8">Source Control + PR Reviews</text>

  <!-- GitHub Actions -->
  <rect x="220" y="556" width="340" height="48" rx="6" fill="#0f1829" stroke="#a78bfa" stroke-width="1" stroke-opacity="0.4"/>
  <text x="390" y="576" text-anchor="middle" fill="#a78bfa" font-size="11" font-weight="600">GitHub Actions</text>
  <text x="390" y="590" text-anchor="middle" fill="#4a6080" font-size="8">deploy.yml | e2e.yml | smoke-test.yml | cleanup.yml | migrate.yml</text>

  <!-- Deploy flow -->
  <rect x="40" y="616" width="520" height="28" rx="4" fill="#0e0818" stroke="#1e2d42" stroke-width="0.5"/>
  <text x="300" y="634" text-anchor="middle" fill="#a78bfa" font-size="9" font-weight="500">Deploy: Checkout > Assemble Creds > Migrate DB > Type Check > Build > Deploy > Verify > Alias</text>

  <!-- Vercel CLI -->
  <rect x="40" y="656" width="160" height="40" rx="6" fill="#0f1829" stroke="#22d3ee" stroke-width="1" stroke-opacity="0.4"/>
  <text x="120" y="674" text-anchor="middle" fill="#22d3ee" font-size="10" font-weight="600">Vercel CLI</text>
  <text x="120" y="688" text-anchor="middle" fill="#4a6080" font-size="8">Build + Deploy (prebuilt)</text>

  <!-- Browserbase -->
  <rect x="220" y="656" width="160" height="40" rx="6" fill="#0f1829" stroke="#94a3b8" stroke-width="1" stroke-opacity="0.4"/>
  <text x="300" y="674" text-anchor="middle" fill="#dce8f5" font-size="10" font-weight="600">Browserbase</text>
  <text x="300" y="688" text-anchor="middle" fill="#4a6080" font-size="8">Playwright E2E Testing</text>

  <!-- Deploy trigger note -->
  <rect x="400" y="656" width="160" height="40" rx="6" fill="#0f1829" stroke="#94a3b8" stroke-width="1" stroke-opacity="0.3"/>
  <text x="480" y="674" text-anchor="middle" fill="#dce8f5" font-size="9" font-weight="500">Deployment Triggers</text>
  <text x="480" y="688" text-anchor="middle" fill="#4a6080" font-size="8">main=prod | claude/*=preview</text>

  <!-- Scheduled jobs -->
  <rect x="40" y="708" width="520" height="28" rx="4" fill="#0e0818" stroke="#1e2d42" stroke-width="0.5"/>
  <text x="300" y="726" text-anchor="middle" fill="#6480a0" font-size="8">Cron Jobs: smoke-test.yml (hourly :05) | cleanup.yml (daily 03:00 UTC) | Auto-issue on smoke failure</text>

  <!-- ================================================================== -->
  <!-- GROUP: Security + Compliance (bottom-right) -->
  <!-- ================================================================== -->
  <rect x="610" y="380" width="470" height="190" rx="10" fill="url(#secGrad)" stroke="#1e2d42" stroke-width="1"/>
  <text x="845" y="400" text-anchor="middle" fill="#6480a0" font-size="10" font-weight="600" letter-spacing="1">SECURITY + COMPLIANCE</text>

  <!-- Auth + Sessions -->
  <rect x="630" y="414" width="210" height="48" rx="6" fill="#0f1829" stroke="#fb7185" stroke-width="1" stroke-opacity="0.4"/>
  <text x="735" y="434" text-anchor="middle" fill="#fb7185" font-size="10" font-weight="600">Authentication</text>
  <text x="735" y="450" text-anchor="middle" fill="#4a6080" font-size="8">Supabase SSR + Cookie Sessions + MFA</text>

  <!-- RBAC -->
  <rect x="860" y="414" width="200" height="48" rx="6" fill="#0f1829" stroke="#fb7185" stroke-width="1" stroke-opacity="0.4"/>
  <text x="960" y="434" text-anchor="middle" fill="#fb7185" font-size="10" font-weight="600">RBAC</text>
  <text x="960" y="450" text-anchor="middle" fill="#4a6080" font-size="8">Org + Property Level Access</text>

  <!-- Audit + Error Logging -->
  <rect x="630" y="474" width="210" height="40" rx="6" fill="#0f1829" stroke="#94a3b8" stroke-width="1" stroke-opacity="0.3"/>
  <text x="735" y="494" text-anchor="middle" fill="#dce8f5" font-size="10" font-weight="600">Audit Log</text>
  <text x="735" y="506" text-anchor="middle" fill="#4a6080" font-size="8">All entity changes tracked</text>

  <rect x="860" y="474" width="200" height="40" rx="6" fill="#0f1829" stroke="#94a3b8" stroke-width="1" stroke-opacity="0.3"/>
  <text x="960" y="494" text-anchor="middle" fill="#dce8f5" font-size="10" font-weight="600">Error Logging</text>
  <text x="960" y="506" text-anchor="middle" fill="#4a6080" font-size="8">Client + Server + Action errors</text>

  <!-- Compliance badges -->
  <rect x="630" y="526" width="430" height="28" rx="4" fill="#100510" stroke="#1e2d42" stroke-width="0.5"/>
  <text x="845" y="544" text-anchor="middle" fill="#fb7185" font-size="9" font-weight="500">SOC 2 Controls | PCI DSS SAQ A | HSTS | CSP | X-Frame-Options DENY | npm audit in CI</text>

  <!-- ================================================================== -->
  <!-- GROUP: Monitoring + Observability (bottom-right) -->
  <!-- ================================================================== -->
  <rect x="610" y="590" width="470" height="155" rx="10" fill="url(#hostGrad)" stroke="#1e2d42" stroke-width="1"/>
  <text x="845" y="610" text-anchor="middle" fill="#6480a0" font-size="10" font-weight="600" letter-spacing="1">MONITORING + OBSERVABILITY</text>

  <rect x="630" y="624" width="140" height="48" rx="6" fill="#0f1829" stroke="#38bdf8" stroke-width="1" stroke-opacity="0.4"/>
  <text x="700" y="644" text-anchor="middle" fill="#38bdf8" font-size="10" font-weight="600">Smoke Tests</text>
  <text x="700" y="658" text-anchor="middle" fill="#4a6080" font-size="8">Hourly health probes</text>

  <rect x="790" y="624" width="140" height="48" rx="6" fill="#0f1829" stroke="#38bdf8" stroke-width="1" stroke-opacity="0.4"/>
  <text x="860" y="644" text-anchor="middle" fill="#38bdf8" font-size="10" font-weight="600">AI Usage</text>
  <text x="860" y="658" text-anchor="middle" fill="#4a6080" font-size="8">Token tracking per user</text>

  <rect x="950" y="624" width="110" height="48" rx="6" fill="#0f1829" stroke="#38bdf8" stroke-width="1" stroke-opacity="0.4"/>
  <text x="1005" y="644" text-anchor="middle" fill="#38bdf8" font-size="10" font-weight="600">/api/health</text>
  <text x="1005" y="658" text-anchor="middle" fill="#4a6080" font-size="8">Deploy gate</text>

  <rect x="630" y="684" width="430" height="22" rx="4" fill="#091220" stroke="#1e2d42" stroke-width="0.5"/>
  <text x="845" y="699" text-anchor="middle" fill="#4a6080" font-size="8">Post-deploy gate: Schema check | Twilio webhook match | Health endpoint | CI env vars | Runtime env vars (/api/envcheck)</text>

  <rect x="630" y="716" width="430" height="20" rx="4" fill="#091220" stroke="#1e2d42" stroke-width="0.5"/>
  <text x="845" y="730" text-anchor="middle" fill="#4a6080" font-size="8">Auto-issue creation on smoke failure (GitHub Issues with label: smoke-test-failure)</text>

  <!-- ================================================================== -->
  <!-- DATA FLOW ARROWS -->
  <!-- ================================================================== -->

  <!-- User Browser -> Vercel Edge -->
  <line x1="200" y1="121" x2="268" y2="121" stroke="#22d3ee" stroke-width="1.5" stroke-opacity="0.7" marker-end="url(#arrowCyan)"/>

  <!-- Mobile SMS -> Twilio -->
  <path d="M200,166 L230,166 Q240,166 240,176 L240,208 Q240,218 250,218 L620,218" fill="none" stroke="#fb7185" stroke-width="1.2" stroke-opacity="0.5" stroke-dasharray="4,3"/>
  <!-- Twilio -> API Routes (webhook) -->
  <path d="M850,208 L580,208 Q570,208 570,198 L570,196" fill="none" stroke="#fb7185" stroke-width="1.2" stroke-opacity="0.5" marker-end="url(#arrowRose)"/>

  <!-- Vercel Edge -> Middleware -> Server Components -->
  <line x1="420" y1="138" x2="420" y2="146" stroke="#38bdf8" stroke-width="1" stroke-opacity="0.5" marker-end="url(#arrowSky)"/>
  <line x1="342" y1="176" x2="342" y2="184" stroke="#38bdf8" stroke-width="1" stroke-opacity="0.5" marker-end="url(#arrowSky)"/>
  <line x1="497" y1="176" x2="497" y2="184" stroke="#38bdf8" stroke-width="1" stroke-opacity="0.5" marker-end="url(#arrowSky)"/>

  <!-- Domain -> Vercel Edge -->
  <path d="M620,110 L575,110 Q570,110 570,115 L570,116" fill="none" stroke="#22d3ee" stroke-width="1" stroke-opacity="0.4" marker-end="url(#arrowCyan)"/>

  <!-- Server Components -> Supabase Postgres -->
  <path d="M342,224 L342,280 Q342,290 332,290 L305,290 Q295,290 295,300 L295,334" fill="none" stroke="#34d399" stroke-width="1.5" stroke-opacity="0.6" marker-end="url(#arrowEmerald)"/>

  <!-- Server Components -> Supabase Auth -->
  <path d="M302,224 L302,280 Q302,290 250,290 L120,290 Q110,290 110,300 L110,334" fill="none" stroke="#34d399" stroke-width="1.2" stroke-opacity="0.4" marker-end="url(#arrowEmerald)"/>

  <!-- API Routes -> Claude -->
  <path d="M570,196 Q580,196 580,186 L580,176 Q580,166 590,166 L610,166 Q620,166 620,178 L620,180 L628,194" fill="none" stroke="#a78bfa" stroke-width="1.5" stroke-opacity="0.6" marker-end="url(#arrowViolet)"/>

  <!-- API Routes -> Stripe -->
  <path d="M570,210 Q600,210 600,248 L628,260" fill="none" stroke="#a78bfa" stroke-width="1.2" stroke-opacity="0.4" marker-end="url(#arrowViolet)"/>

  <!-- API Routes -> Resend (email) -->
  <path d="M570,218 Q600,218 610,260 Q615,280 848,275" fill="none" stroke="#38bdf8" stroke-width="1.2" stroke-opacity="0.4" marker-end="url(#arrowSky)"/>

  <!-- GitHub -> GitHub Actions -->
  <line x1="200" y1="580" x2="218" y2="580" stroke="#a78bfa" stroke-width="1.2" stroke-opacity="0.5" marker-end="url(#arrowViolet)"/>

  <!-- GitHub Actions -> Vercel CLI -->
  <line x1="390" y1="604" x2="390" y2="616" stroke="#a78bfa" stroke-width="1" stroke-opacity="0.4"/>
  <line x1="120" y1="644" x2="120" y2="654" stroke="#22d3ee" stroke-width="1" stroke-opacity="0.4" marker-end="url(#arrowCyan)"/>

  <!-- GitHub Actions -> Supabase Management API -->
  <path d="M220,604 L180,604 Q170,604 170,520 L170,510 Q170,500 160,498" fill="none" stroke="#34d399" stroke-width="1" stroke-opacity="0.4" marker-end="url(#arrowEmerald)"/>

  <!-- Vercel CLI -> Vercel Edge (deploy) -->
  <path d="M120,656 Q120,636 108,636 Q60,636 30,636 Q10,636 10,280 Q10,70 270,104" fill="none" stroke="#22d3ee" stroke-width="1" stroke-opacity="0.3" stroke-dasharray="5,4" marker-end="url(#arrowCyan)"/>

  <!-- ================================================================== -->
  <!-- LEGEND -->
  <!-- ================================================================== -->
  <rect x="20" y="770" width="1060" height="195" rx="10" fill="#0c1220" stroke="#1e2d42" stroke-width="1"/>
  <text x="550" y="794" text-anchor="middle" fill="#6480a0" font-size="10" font-weight="600" letter-spacing="1">LEGEND</text>

  <!-- Arrow types -->
  <line x1="40" y1="818" x2="80" y2="818" stroke="#22d3ee" stroke-width="1.5" marker-end="url(#arrowCyan)"/>
  <text x="90" y="822" fill="#94a3b8" font-size="9">User Request / Hosting Flow</text>

  <line x1="40" y1="838" x2="80" y2="838" stroke="#34d399" stroke-width="1.5" marker-end="url(#arrowEmerald)"/>
  <text x="90" y="842" fill="#94a3b8" font-size="9">Data Storage / DB Flow</text>

  <line x1="40" y1="858" x2="80" y2="858" stroke="#a78bfa" stroke-width="1.5" marker-end="url(#arrowViolet)"/>
  <text x="90" y="862" fill="#94a3b8" font-size="9">AI / External API Flow</text>

  <line x1="40" y1="878" x2="80" y2="878" stroke="#fb7185" stroke-width="1.5" marker-end="url(#arrowRose)"/>
  <text x="90" y="882" fill="#94a3b8" font-size="9">SMS / Webhook Flow</text>

  <line x1="40" y1="898" x2="80" y2="898" stroke="#38bdf8" stroke-width="1.5" marker-end="url(#arrowSky)"/>
  <text x="90" y="902" fill="#94a3b8" font-size="9">Internal Middleware / Email</text>

  <line x1="40" y1="918" x2="80" y2="918" stroke="#22d3ee" stroke-width="1" stroke-dasharray="5,4" marker-end="url(#arrowCyan)"/>
  <text x="90" y="922" fill="#94a3b8" font-size="9">Deployment Flow (CI/CD)</text>

  <!-- System count -->
  <text x="380" y="822" fill="#6480a0" font-size="10" font-weight="600">Systems Inventory</text>

  <text x="380" y="842" fill="#22d3ee" font-size="9">Vercel</text>
  <text x="440" y="842" fill="#4a6080" font-size="9">Edge + CDN + Hosting + CLI</text>

  <text x="380" y="858" fill="#34d399" font-size="9">Supabase</text>
  <text x="440" y="858" fill="#4a6080" font-size="9">PostgreSQL + Auth + Storage + Mgmt API</text>

  <text x="380" y="874" fill="#a78bfa" font-size="9">Anthropic</text>
  <text x="440" y="874" fill="#4a6080" font-size="9">Claude Haiku 4.5 (AI engine)</text>

  <text x="380" y="890" fill="#fb7185" font-size="9">Twilio</text>
  <text x="440" y="890" fill="#4a6080" font-size="9">SMS inbound/outbound + webhooks</text>

  <text x="380" y="906" fill="#a78bfa" font-size="9">Stripe</text>
  <text x="440" y="906" fill="#4a6080" font-size="9">Billing (hosted Checkout, SAQ A)</text>

  <text x="380" y="922" fill="#38bdf8" font-size="9">Resend</text>
  <text x="440" y="922" fill="#4a6080" font-size="9">Transactional email notifications</text>

  <text x="700" y="822" fill="#6480a0" font-size="10" font-weight="600">DevOps + Monitoring</text>

  <text x="700" y="842" fill="#94a3b8" font-size="9">GitHub</text>
  <text x="760" y="842" fill="#4a6080" font-size="9">Source control + PRs</text>

  <text x="700" y="858" fill="#a78bfa" font-size="9">GitHub Actions</text>
  <text x="795" y="858" fill="#4a6080" font-size="9">CI/CD (7 workflows)</text>

  <text x="700" y="874" fill="#94a3b8" font-size="9">Browserbase</text>
  <text x="785" y="874" fill="#4a6080" font-size="9">E2E Playwright tests</text>

  <text x="700" y="890" fill="#38bdf8" font-size="9">Smoke Tests</text>
  <text x="785" y="890" fill="#4a6080" font-size="9">Hourly health probes</text>

  <text x="700" y="906" fill="#38bdf8" font-size="9">Post-Deploy Gate</text>
  <text x="810" y="906" fill="#4a6080" font-size="9">5-check verification</text>

  <text x="700" y="922" fill="#fb7185" font-size="9">Security Headers</text>
  <text x="805" y="922" fill="#4a6080" font-size="9">CSP + HSTS + DENY</text>

  <!-- Footer -->
  <text x="550" y="948" text-anchor="middle" fill="#4a6080" font-size="9">13 external/internal systems  |  7 GitHub Actions workflows  |  12 API routes  |  17 database tables</text>
  <text x="550" y="965" text-anchor="middle" fill="#2a3d58" font-size="8">Architecture as of 2026-03-01  |  Admin-only visibility</text>
</svg>
